<svg class="img-fluid" id="outputsvg" xmlns="http://www.w3.org/2000/svg" style="transform: none; transform-origin: 50% 50%; cursor: move;" width="1781" height="1126" viewBox="0 0 17810 11260"><g id="l3gSnoVeTwRL6BBespfLYdM" fill="rgb(0,0,0)" style="transform: none;"><g><path id="p3EbdOjX6" d="M0 5630 l0 -5630 8905 0 8905 0 0 5630 0 5630 -8905 0 -8905 0 0 -5630z m2267 2926 c64 -35 138 -108 181 -179 18 -30 57 -122 86 -205 261 -730 756 -1656 1294 -2419 60 -86 68 -93 99 -93 32 0 33 1 33 41 0 23 -13 105 -29 183 -37 176 -103 557 -135 781 -92 630 -86 907 21 1120 42 82 154 185 253 233 116 56 197 75 290 70 89 -5 150 -30 210 -84 58 -52 84 -93 206 -321 350 -649 783 -1317 1202 -1849 112 -142 119 -149 156 -152 l39 -3 -9 173 c-14 270 -11 896 4 1013 32 240 94 425 197 579 53 81 169 186 247 224 257 126 576 90 760 -86 79 -75 112 -145 112 -235 0 -67 -3 -75 -83 -230 -98 -189 -116 -237 -141 -377 -88 -487 -17 -1397 163 -2094 34 -131 41 -178 41 -251 0 -81 -3 -97 -32 -158 -106 -217 -442 -361 -708 -302 -154 34 -271 115 -538 375 -243 237 -571 607 -837 943 -110 140 -115 145 -151 146 -35 1 -38 -1 -38 -28 0 -66 193 -673 350 -1101 104 -284 112 -373 47 -513 -46 -100 -169 -207 -294 -256 -74 -29 -239 -61 -316 -61 -140 0 -316 53 -437 132 -195 127 -700 692 -1152 1288 -244 322 -685 961 -855 1240 -22 36 -89 146 -150 245 -228 371 -403 678 -591 1037 -65 124 -158 336 -188 428 -37 116 -40 275 -7 364 58 152 169 278 304 345 113 55 178 72 269 68 60 -3 86 -9 127 -31z m6128 -1250 c295 -62 634 -265 937 -562 87 -85 101 -95 129 -92 27 3 34 9 50 51 26 65 87 154 139 201 57 51 166 102 253 117 261 44 654 -145 970 -468 163 -167 241 -290 274 -434 30 -133 -11 -265 -114 -367 -102 -102 -199 -130 -320 -94 -67 21 -174 82 -202 115 -8 10 -28 17 -47 17 -34 0 -34 0 -34 -49 0 -69 69 -310 165 -576 57 -159 77 -255 64 -320 -22 -120 -88 -201 -209 -259 -61 -29 -72 -31 -170 -30 -92 0 -115 4 -192 32 -47 18 -96 32 -109 32 -14 0 -50 -27 -99 -74 -92 -88 -173 -137 -295 -179 -81 -27 -102 -31 -210 -31 -370 -1 -802 210 -1179 574 -633 610 -918 1447 -671 1969 114 239 321 401 565 441 71 11 216 5 305 -14z m3441 -540 c105 -22 210 -80 290 -160 86 -87 117 -141 234 -416 157 -367 312 -652 491 -902 199 -277 360 -419 559 -494 66 -24 89 -28 190 -28 l115 -1 83 43 c128 68 204 55 303 -49 184 -193 155 -562 -61 -779 -148 -148 -362 -212 -585 -176 -282 47 -524 184 -794 453 -106 105 -128 123 -155 123 -24 0 -36 -7 -49 -29 -18 -31 -102 -98 -155 -126 -63 -31 -167 -47 -233 -35 -235 43 -469 185 -753 460 -372 359 -452 612 -272 864 84 118 222 186 377 186 l79 0 0 29 c0 44 -64 220 -136 372 -104 221 -116 314 -58 433 89 183 310 279 530 232z m2590 -190 c285 -50 547 -184 744 -378 143 -142 231 -276 289 -442 98 -278 77 -541 -74 -956 -30 -83 -60 -183 -65 -222 -26 -179 33 -268 176 -268 77 0 126 30 205 127 84 101 166 152 250 153 50 0 151 -53 195 -103 50 -57 92 -153 106 -240 14 -92 -7 -208 -58 -317 -120 -255 -404 -434 -724 -457 -263 -18 -560 95 -771 294 -96 91 -160 179 -225 308 -72 145 -95 237 -101 397 -6 154 10 258 72 463 57 189 68 258 63 395 -5 134 -23 185 -87 249 -66 66 -112 84 -221 89 -158 7 -226 -30 -354 -191 -72 -91 -117 -132 -186 -167 -139 -72 -335 31 -432 227 -38 76 -42 93 -46 173 -8 165 47 326 166 486 149 201 366 329 644 379 99 18 334 18 434 1z"></path><path id="pM0SrZvMy" d="M2010 8403 c-125 -44 -223 -163 -225 -273 0 -43 1 -45 32 -48 26 -3 38 4 78 47 60 64 169 121 231 121 39 0 50 -5 92 -47 44 -43 53 -61 92 -173 221 -644 639 -1447 1162 -2230 253 -380 447 -642 679 -920 135 -162 159 -182 217 -178 l47 3 3 60 c3 75 -4 89 -129 242 -766 943 -1450 2105 -1811 3078 -86 231 -112 272 -203 315 -51 25 -198 26 -265 3z"></path><path id="pFwzIb0HW" d="M4199 7907 c-30 -13 -72 -36 -93 -52 -49 -37 -96 -119 -96 -167 0 -37 1 -38 36 -38 24 0 46 8 67 26 47 40 144 85 195 90 41 5 53 2 92 -25 58 -39 71 -57 176 -247 103 -188 209 -373 327 -569 129 -215 335 -531 494 -760 277 -397 650 -860 894 -1107 86 -88 86 -88 137 -88 63 0 76 18 70 96 -4 51 -8 56 -109 166 -576 622 -1170 1469 -1672 2388 -104 190 -147 243 -229 284 -72 36 -205 37 -289 3z"></path><path id="pU0wisuMx" d="M6865 7564 c-53 -9 -153 -45 -188 -68 -72 -49 -87 -68 -87 -108 0 -35 2 -38 27 -38 15 0 46 9 70 21 182 88 441 48 511 -80 24 -44 17 -70 -46 -173 -55 -89 -96 -172 -115 -233 -52 -158 -77 -392 -77 -710 1 -517 72 -1077 207 -1610 31 -124 34 -149 28 -217 l-6 -78 39 0 c27 0 45 7 60 23 71 75 75 217 14 472 -93 383 -158 864 -177 1295 -11 240 21 622 65 795 21 80 44 132 125 280 48 87 50 93 50 170 0 66 -4 86 -23 118 -31 48 -99 95 -176 119 -60 20 -235 32 -301 22z"></path><path id="p3XrIs0Df" d="M4677 6463 c-33 -32 48 -496 167 -963 117 -460 276 -972 401 -1290 104 -266 108 -279 96 -321 -6 -20 -11 -48 -11 -63 0 -24 4 -26 39 -26 78 0 128 98 119 233 -4 58 -19 109 -78 262 -210 552 -401 1219 -551 1925 -24 114 -40 168 -62 203 -27 44 -31 47 -71 47 -24 0 -46 -3 -49 -7z"></path><path id="pAoG1NeXX" d="M8155 7170 c-129 -12 -229 -60 -294 -140 -19 -24 -31 -50 -31 -69 0 -29 3 -31 35 -31 20 0 58 12 88 29 278 153 712 7 1182 -400 56 -48 174 -162 263 -254 152 -157 165 -168 205 -172 59 -7 70 9 65 90 -4 74 -4 73 -167 242 -335 349 -577 523 -881 638 -163 61 -308 82 -465 67z"></path><path id="pguIbQvKr" d="M9952 6879 c-100 -17 -182 -78 -182 -136 0 -31 2 -33 33 -33 17 0 50 7 72 15 192 69 574 -115 860 -414 134 -141 179 -231 168 -343 l-6 -68 32 0 c47 0 70 16 92 63 41 92 16 257 -57 367 -48 73 -241 261 -341 333 -157 112 -345 197 -480 217 -79 11 -118 11 -191 -1z"></path><path id="pbBvUN9dZ" d="M8306 6459 c-14 -11 -38 -42 -54 -67 -25 -44 -27 -56 -30 -178 -4 -147 13 -241 69 -376 131 -317 431 -648 718 -792 145 -72 212 -88 350 -84 101 3 123 7 173 30 31 14 77 47 102 72 37 37 46 52 46 81 0 33 -2 35 -34 35 -18 0 -60 -12 -91 -26 -112 -52 -244 -40 -412 36 -149 68 -342 225 -472 384 -219 267 -346 598 -296 766 9 30 19 74 22 98 l5 42 -35 0 c-20 0 -46 -9 -61 -21z"></path><path id="p18fX9oiib" d="M8460 6219 c0 -72 41 -206 100 -325 156 -320 449 -593 706 -658 34 -9 101 -16 148 -16 102 0 105 3 89 96 -39 226 -400 641 -728 836 -93 56 -184 90 -252 96 l-63 5 0 -34z"></path><path id="p16HnptPgf" d="M10157 6169 c-105 -81 -27 -492 222 -1179 21 -58 31 -104 31 -142 l0 -58 38 0 c72 0 102 49 102 168 0 66 -7 96 -45 207 -150 428 -235 768 -235 939 l0 86 -44 0 c-29 0 -52 -7 -69 -21z"></path><path id="pGWLpumyU" d="M11627 6605 c-59 -20 -87 -52 -87 -96 l0 -38 108 2 c105 2 109 1 183 -35 121 -59 176 -129 286 -363 229 -486 288 -597 453 -845 290 -434 546 -648 847 -706 152 -29 262 -15 362 46 63 37 75 41 97 32 35 -17 80 -93 93 -161 17 -85 -9 -187 -64 -253 -16 -19 -25 -42 -25 -64 0 -32 2 -34 36 -34 31 0 45 9 98 63 86 85 109 145 110 287 1 118 -15 181 -64 249 -38 52 -76 71 -141 71 -44 0 -64 -7 -118 -39 -107 -64 -164 -73 -292 -46 -256 54 -488 240 -736 590 -170 240 -323 514 -463 830 -121 272 -181 367 -282 440 -80 59 -165 85 -277 85 -47 -1 -103 -7 -124 -15z"></path><path id="pSj1aUddF" d="M11300 5514 c-47 -20 -70 -51 -70 -97 l0 -38 54 2 c64 2 100 -19 232 -142 115 -107 172 -139 245 -139 68 0 80 11 87 78 l4 48 -58 36 c-33 20 -104 78 -159 128 -55 51 -122 103 -150 116 -58 28 -132 31 -185 8z"></path><path id="pscdKG6Uc" d="M14046 6454 c-182 -33 -313 -99 -433 -219 -77 -77 -83 -85 -83 -124 0 -40 1 -41 34 -41 19 0 39 7 47 17 38 45 152 113 274 164 45 19 195 49 275 55 166 13 410 -45 578 -137 197 -107 357 -265 443 -439 120 -243 116 -508 -15 -875 -62 -174 -76 -245 -76 -385 0 -148 13 -202 67 -280 93 -132 313 -178 480 -99 43 21 77 47 115 90 91 104 135 149 146 149 23 0 71 -53 88 -95 21 -57 15 -146 -15 -208 -12 -24 -21 -58 -21 -76 0 -31 1 -32 37 -29 31 3 43 11 75 53 57 74 81 164 76 278 -4 107 -29 169 -80 207 -26 19 -48 25 -104 28 -89 5 -112 -6 -184 -90 -175 -204 -308 -236 -454 -107 -68 60 -90 116 -90 224 0 83 4 102 53 240 118 336 141 440 141 646 0 349 -132 613 -410 821 -266 198 -645 290 -964 232z"></path></g></g><g id="l4g76LprEeYV9T2z6C7pPkc" fill="rgb(219,1,15)" style="transform: none;"><g><path id="psUc2CcQ6" d="M2066 8279 c-64 -15 -153 -69 -200 -119 -47 -51 -61 -54 -45 -13 12 33 9 35 -16 15 -42 -34 -69 -111 -73 -207 -4 -81 -1 -101 27 -182 100 -299 600 -1180 1106 -1948 446 -678 937 -1317 1383 -1799 255 -276 354 -351 513 -392 95 -24 349 -16 439 15 111 38 191 108 204 180 6 33 5 33 -12 18 -26 -24 -33 -21 -22 9 25 65 16 101 -95 384 -223 568 -486 1532 -561 2057 -17 116 -15 143 10 143 21 0 70 -87 84 -149 9 -41 39 -93 129 -225 427 -629 1049 -1375 1449 -1737 220 -200 268 -226 424 -236 105 -6 225 15 310 53 75 34 140 102 140 147 0 24 -3 28 -12 19 -21 -21 -23 -14 -20 66 3 63 -3 104 -32 217 -195 781 -261 1677 -157 2151 26 120 50 182 116 294 69 117 86 155 92 202 11 78 -73 161 -194 192 -120 31 -295 17 -394 -32 -49 -24 -50 -16 -2 26 l38 33 -55 -23 c-145 -59 -246 -225 -284 -469 -41 -260 -47 -819 -12 -1214 31 -344 66 -598 87 -625 47 -61 47 -122 0 -128 -26 -4 -127 93 -297 288 -541 619 -1052 1366 -1528 2234 -102 185 -117 207 -166 241 -56 39 -103 49 -164 34 -62 -14 -151 -58 -195 -95 -39 -32 -48 -27 -25 17 l17 33 -33 -28 c-46 -38 -66 -66 -98 -133 l-27 -58 0 -250 c1 -266 9 -353 76 -780 73 -468 191 -1059 292 -1467 28 -112 40 -143 65 -172 45 -52 56 -136 18 -136 -38 0 -195 179 -432 490 -363 478 -766 1103 -1046 1625 -236 439 -424 855 -549 1214 -43 124 -66 163 -119 201 -34 24 -101 33 -154 19z"></path><path id="pdtLIDS6x" d="M8028 7031 c-37 -10 -87 -30 -112 -45 -55 -32 -66 -33 -39 -3 69 77 -27 28 -109 -56 -69 -70 -122 -172 -144 -277 -25 -117 -14 -402 19 -535 189 -744 865 -1456 1511 -1589 88 -19 300 -21 378 -5 140 29 281 142 354 282 l38 76 47 -44 c87 -82 206 -121 340 -112 103 7 151 34 161 90 4 20 2 25 -5 18 -20 -20 -24 -12 -24 42 0 35 -10 82 -32 142 -115 315 -180 527 -229 745 -37 166 -47 263 -33 318 17 61 91 112 91 62 0 -14 7 -20 23 -20 47 0 145 -60 266 -163 68 -59 140 -114 160 -123 52 -25 160 -30 198 -10 36 18 67 58 77 99 6 25 5 27 -13 18 -18 -10 -18 -7 -14 53 7 80 -13 142 -70 224 -169 242 -524 490 -775 541 -74 15 -199 13 -247 -4 -52 -19 -52 -19 -25 10 29 31 14 32 -46 4 -99 -47 -161 -177 -172 -361 -7 -96 -5 -110 11 -126 39 -39 30 -130 -11 -115 -9 4 -89 81 -177 171 -380 391 -671 590 -1000 684 -103 29 -307 34 -397 9z m333 -609 c-17 -32 -14 -33 25 -10 46 27 128 28 204 3 395 -130 930 -648 1066 -1034 20 -58 21 -68 9 -108 -8 -25 -21 -53 -30 -63 -9 -10 -24 -34 -34 -53 l-18 -36 29 15 c17 9 32 13 35 10 11 -11 -92 -99 -145 -124 -80 -37 -200 -42 -300 -13 -398 119 -824 583 -932 1017 -32 126 -26 269 13 336 37 64 110 120 78 60z"></path><path id="pxaoviEAC" d="M11535 6526 c-26 -8 -47 -23 -63 -46 -21 -31 -23 -44 -20 -120 3 -80 7 -93 64 -215 73 -155 120 -277 169 -442 40 -136 81 -324 91 -417 5 -44 12 -66 26 -77 19 -15 19 -19 7 -45 -31 -64 -115 -31 -261 103 -135 125 -172 148 -235 148 -56 0 -61 3 -40 24 18 19 -63 3 -86 -17 -79 -69 -88 -240 -19 -362 115 -203 483 -536 707 -641 93 -44 158 -59 255 -59 133 0 184 32 236 143 22 50 27 76 32 182 l5 123 70 -96 c298 -413 615 -665 912 -727 113 -23 310 -20 387 6 98 33 184 105 228 189 12 24 11 23 -21 -6 -19 -16 -43 -37 -53 -45 -18 -13 -18 -13 -8 7 6 11 18 26 26 33 22 19 56 115 62 180 11 103 -31 236 -88 276 -41 28 -96 19 -176 -29 -62 -38 -84 -45 -145 -51 -159 -14 -367 58 -531 183 -155 119 -303 288 -466 532 -165 248 -224 359 -453 845 -110 234 -165 304 -286 363 -73 36 -80 37 -183 37 -60 0 -108 2 -108 6 0 3 5 10 12 17 14 14 5 14 -47 -2z"></path><path id="pWOmgZXMR" d="M14058 6329 c-62 -9 -172 -35 -203 -48 -131 -55 -200 -95 -262 -154 -55 -52 -37 -12 25 54 l57 62 -51 -36 c-29 -21 -57 -44 -64 -52 -7 -8 -18 -15 -25 -15 -12 0 -111 -133 -138 -185 -45 -88 -60 -248 -33 -339 32 -104 97 -156 196 -156 63 0 67 2 101 38 20 20 46 53 59 72 46 67 156 172 216 206 92 51 201 76 279 64 267 -43 440 -223 470 -490 9 -75 -16 -229 -60 -374 -61 -202 -76 -275 -82 -407 -9 -207 23 -359 106 -499 124 -208 317 -350 553 -405 108 -26 337 -24 441 4 171 45 314 149 376 274 40 81 39 89 -5 41 -38 -42 -38 -41 -9 21 27 58 33 202 11 260 -24 61 -66 95 -118 95 -44 0 -51 -6 -176 -149 -60 -68 -143 -114 -224 -125 -112 -14 -248 44 -311 134 -51 73 -67 134 -67 250 0 108 18 193 76 355 113 317 134 585 64 812 -69 226 -248 429 -492 562 -204 111 -486 163 -710 130z"></path></g></g><g id="l6bK8y0XOEwZDoEl0kg9FZ" fill="rgb(212,159,70)" style="transform: none;"><g><path id="pVtGu5abi" d="M2055 8619 c-239 -35 -433 -190 -518 -415 -19 -51 -22 -77 -21 -199 0 -124 3 -149 28 -225 30 -92 123 -305 188 -428 188 -359 363 -666 591 -1037 61 -99 128 -209 150 -245 170 -279 611 -918 855 -1240 452 -596 957 -1161 1152 -1288 145 -94 314 -138 505 -129 196 9 330 51 454 142 120 89 180 197 189 341 7 120 -9 185 -107 455 -144 398 -338 1005 -325 1018 3 3 12 -6 21 -18 9 -13 77 -98 151 -190 503 -619 968 -1094 1181 -1205 148 -77 367 -88 551 -28 176 58 301 154 362 279 32 65 33 72 33 188 0 108 -4 135 -42 281 -105 406 -169 841 -195 1323 -18 344 11 704 70 872 11 31 57 129 103 218 l84 161 0 98 c0 86 -3 104 -28 153 -34 70 -124 157 -205 198 -110 55 -200 75 -347 74 -217 -1 -362 -53 -492 -176 -166 -158 -263 -380 -305 -702 -15 -115 -18 -809 -5 -1044 8 -128 7 -143 -6 -132 -9 7 -67 78 -130 159 -424 543 -844 1191 -1191 1835 -122 228 -148 269 -206 321 -68 62 -119 79 -240 84 -126 5 -196 -11 -320 -70 -99 -48 -211 -151 -253 -233 -109 -216 -115 -537 -21 -1180 32 -224 98 -605 135 -781 16 -78 29 -148 29 -155 -1 -20 -23 10 -169 226 -522 773 -949 1584 -1197 2277 -58 163 -96 236 -159 300 -99 101 -209 138 -350 117z m190 -249 c91 -43 117 -84 203 -315 328 -883 891 -1872 1589 -2794 172 -226 303 -389 317 -394 21 -8 -21 125 -60 195 -74 131 -177 381 -218 533 -66 242 -197 988 -241 1375 -42 372 -24 614 57 775 19 36 137 169 144 162 2 -2 -6 -31 -16 -66 -21 -65 -28 -201 -11 -201 5 0 26 33 45 74 41 84 85 125 174 162 117 48 233 23 323 -70 23 -23 81 -115 136 -216 499 -912 1087 -1754 1661 -2377 52 -57 98 -100 102 -98 15 9 -18 122 -64 218 -25 55 -46 103 -46 108 0 5 -4 17 -10 27 -14 25 -56 168 -69 232 -11 60 -27 299 -36 565 -8 204 9 516 35 670 22 128 77 302 123 389 37 69 154 198 216 238 54 34 72 36 43 5 -32 -34 -74 -143 -70 -183 l3 -34 60 56 c99 93 190 128 335 128 213 1 363 -94 363 -228 0 -46 -8 -68 -49 -143 -80 -146 -104 -198 -124 -278 -46 -178 -76 -559 -66 -830 17 -434 87 -955 181 -1335 40 -164 47 -271 21 -333 -8 -21 -38 -63 -65 -94 l-50 -56 17 -29 c9 -17 28 -36 41 -43 l24 -12 -44 -33 c-105 -77 -266 -125 -399 -117 -104 5 -173 30 -277 100 -235 159 -777 740 -1214 1302 -184 236 -291 423 -404 708 -24 60 -58 131 -77 157 -33 50 -54 65 -44 33 3 -10 19 -81 35 -158 141 -664 333 -1331 541 -1879 39 -104 74 -210 77 -236 7 -59 -18 -138 -53 -171 -14 -13 -39 -40 -55 -60 l-29 -37 39 -40 39 -40 -21 -20 c-39 -35 -150 -90 -227 -112 -208 -58 -414 -24 -605 98 -114 72 -405 375 -691 717 -466 557 -955 1242 -1377 1930 -426 693 -736 1266 -812 1500 -43 131 -50 192 -32 274 23 98 66 185 127 251 l50 55 -17 -40 c-10 -25 -18 -81 -21 -148 -4 -100 -3 -109 13 -105 11 2 24 24 36 63 47 148 171 242 324 244 40 0 73 -6 100 -19z"></path><path id="px0BmKSGt" d="M8060 7350 c-297 -49 -540 -282 -620 -595 -144 -566 146 -1316 726 -1875 305 -295 634 -482 977 -557 59 -12 125 -17 232 -17 142 0 155 2 240 31 121 42 203 91 293 178 l75 71 81 -30 c75 -28 91 -30 216 -31 131 0 137 1 202 32 88 41 159 112 186 185 47 125 37 232 -43 453 -79 219 -165 504 -165 548 0 20 2 19 28 -5 114 -108 306 -156 434 -110 243 88 337 387 207 659 -102 214 -428 517 -706 656 -312 157 -624 153 -804 -10 -44 -40 -112 -134 -130 -180 -32 -82 -19 -85 -127 21 -303 296 -639 498 -937 562 -85 19 -289 26 -365 14z m-198 -251 c-38 -77 -56 -174 -31 -164 8 3 32 28 53 56 82 103 193 149 361 150 118 0 212 -18 345 -68 235 -89 465 -236 675 -433 108 -102 310 -309 333 -341 7 -10 17 -19 23 -19 17 0 9 89 -13 142 -32 78 -32 224 0 292 30 62 114 147 180 180 l52 26 -35 -45 c-36 -47 -58 -111 -53 -148 3 -20 8 -17 58 29 68 63 101 80 178 93 116 19 254 -16 429 -109 135 -71 239 -148 368 -275 128 -125 177 -193 205 -284 37 -116 23 -181 -55 -256 -53 -52 -57 -78 -16 -122 l28 -31 -55 -27 c-44 -22 -65 -26 -103 -23 -74 7 -164 58 -279 156 -105 90 -156 148 -202 232 -16 29 -31 45 -44 45 -17 0 -19 -9 -22 -79 -6 -158 79 -503 233 -941 62 -179 59 -265 -13 -307 -41 -24 -89 -68 -74 -68 6 0 12 -5 12 -12 0 -6 11 -26 25 -43 l24 -32 -37 -16 c-77 -33 -137 -37 -225 -16 -67 15 -167 61 -189 85 -12 14 -48 155 -48 190 0 2 -9 8 -19 14 -18 9 -25 1 -67 -81 -35 -68 -66 -110 -118 -162 -77 -76 -83 -96 -46 -148 l19 -27 -67 -30 c-116 -53 -223 -75 -332 -69 -358 21 -794 261 -1151 634 -98 103 -264 309 -306 381 -10 17 -39 66 -64 109 -179 300 -283 633 -283 913 -1 292 106 520 318 677 32 24 59 43 61 43 2 0 -13 -32 -33 -71z"></path><path id="pHUpGj6xI" d="M8357 6413 c-19 -41 -22 -64 -21 -163 1 -95 6 -131 28 -205 71 -233 221 -465 428 -659 152 -144 300 -232 464 -277 157 -43 333 -13 405 68 l31 35 -35 29 c-24 20 -45 53 -67 106 -83 202 -204 377 -390 564 -204 206 -376 327 -572 405 -114 45 -166 78 -188 119 -23 43 -57 33 -83 -22z m268 -230 c273 -114 656 -478 798 -758 36 -69 60 -152 51 -167 -3 -4 -30 -8 -61 -8 -277 0 -640 297 -823 674 -52 107 -67 150 -94 270 -7 28 -7 28 31 21 21 -4 65 -18 98 -32z"></path><path id="p1BTuMZK4Q" d="M11573 6796 c-126 -31 -243 -122 -298 -232 -23 -47 -29 -76 -33 -144 -6 -112 12 -177 92 -349 36 -75 80 -182 100 -238 l35 -103 -78 0 c-155 0 -293 -68 -377 -186 -65 -91 -86 -151 -92 -264 -8 -165 36 -281 173 -452 186 -233 484 -483 700 -588 206 -99 390 -113 540 -40 59 29 142 97 162 133 8 16 26 2 134 -106 208 -207 405 -339 604 -406 555 -186 1012 83 1019 599 2 164 -36 278 -123 369 -66 70 -120 95 -206 95 -64 0 -78 -4 -155 -44 -82 -43 -88 -45 -170 -44 -288 3 -574 256 -895 795 -119 200 -200 362 -315 629 -117 275 -148 329 -234 416 -80 80 -185 138 -290 160 -76 17 -225 16 -293 0z m19 -138 c-36 -39 -62 -95 -62 -138 0 -40 13 -38 58 9 114 119 378 57 510 -121 56 -75 100 -159 182 -343 140 -316 293 -590 463 -830 290 -409 573 -605 875 -605 87 0 133 13 213 61 36 21 75 39 88 39 93 0 176 -139 174 -290 -2 -135 -54 -227 -182 -321 -66 -48 -67 -53 -31 -116 21 -37 20 -38 -55 -76 -108 -54 -254 -70 -385 -42 -181 38 -334 110 -505 236 -118 88 -310 273 -364 352 -41 60 -83 161 -115 279 -24 87 -46 123 -71 115 -6 -2 -13 -60 -16 -139 -6 -118 -10 -143 -34 -196 -15 -33 -39 -72 -55 -87 -31 -29 -30 -56 4 -108 l17 -25 -53 -20 c-88 -33 -134 -35 -223 -12 -207 53 -495 252 -742 514 -219 233 -288 396 -234 559 12 36 35 84 51 106 29 39 123 121 140 121 5 0 3 -19 -5 -41 -8 -23 -15 -63 -15 -89 0 -42 2 -48 19 -43 10 2 25 16 32 30 15 27 79 62 114 63 43 0 124 -51 214 -135 88 -80 185 -155 203 -155 5 0 8 14 8 32 0 21 -13 48 -39 82 -76 102 -121 197 -167 356 -15 52 -40 134 -55 181 -27 79 -48 130 -152 363 -49 109 -54 159 -26 243 28 85 90 155 174 194 77 37 86 36 47 -3z"></path><path id="powLzCCNd" d="M13962 6605 c-278 -50 -495 -178 -644 -379 -132 -177 -189 -369 -167 -563 18 -162 138 -330 276 -384 83 -33 201 -33 263 0 70 37 115 77 186 168 84 105 133 147 203 174 143 54 311 -18 373 -159 27 -60 35 -191 18 -286 -7 -39 -32 -134 -55 -211 -64 -212 -78 -304 -73 -492 6 -193 25 -272 102 -428 111 -221 269 -382 485 -490 365 -184 820 -143 1103 99 90 77 146 149 192 246 101 216 81 469 -48 617 -102 116 -278 137 -408 47 -22 -16 -66 -59 -97 -97 -96 -117 -165 -148 -240 -109 -106 53 -110 156 -16 412 153 420 176 727 74 1016 -144 411 -553 735 -1033 820 -102 18 -393 17 -494 -1z m457 -181 c336 -49 648 -241 822 -506 160 -244 192 -560 90 -888 -16 -52 -53 -162 -82 -245 -53 -149 -53 -151 -54 -270 0 -106 3 -126 24 -168 26 -52 91 -115 148 -142 21 -10 67 -20 103 -22 117 -9 208 43 330 185 67 77 99 96 155 90 118 -14 185 -168 140 -324 -21 -73 -42 -108 -116 -192 l-57 -66 15 -31 c9 -16 24 -36 34 -43 11 -7 19 -17 19 -22 0 -14 -121 -100 -192 -136 -173 -87 -391 -116 -563 -75 -238 57 -449 191 -588 373 -148 195 -220 433 -197 651 11 103 31 188 83 357 48 157 60 245 55 387 -6 150 -29 212 -108 293 -91 93 -193 127 -352 117 -70 -5 -101 -12 -150 -36 l-63 -30 -17 21 c-11 15 -14 33 -11 55 4 22 2 33 -7 33 -19 0 -138 -119 -187 -187 -24 -34 -59 -75 -78 -91 -31 -28 -33 -33 -25 -68 5 -21 16 -44 25 -51 15 -10 12 -13 -23 -23 -34 -9 -49 -7 -98 11 -153 58 -255 238 -233 409 21 155 96 296 233 438 90 93 136 128 94 71 -41 -55 -78 -145 -78 -188 0 -23 4 -41 8 -41 4 0 25 22 46 50 190 249 494 357 855 304z"></path><path id="pLElIInvf" d="M16516 3806 c-172 -64 -182 -310 -14 -381 79 -32 178 -9 232 56 37 43 47 73 48 135 1 136 -139 237 -266 190z m144 -36 c58 -29 84 -72 88 -147 5 -76 -18 -120 -82 -158 -120 -70 -265 21 -254 160 6 66 42 119 102 146 53 24 97 24 146 -1z"></path><path id="p2TceVmpy" d="M16513 3723 c-9 -3 -13 -36 -13 -114 l0 -109 63 0 c79 0 107 17 107 65 0 22 -6 37 -17 44 -17 9 -17 10 0 28 9 11 17 35 17 55 0 31 -3 35 -20 31 -14 -4 -20 -14 -20 -32 0 -36 -17 -51 -57 -51 -32 0 -33 1 -33 39 0 41 -6 51 -27 44z m105 -125 c17 -17 15 -55 -4 -62 -9 -3 -29 -6 -45 -6 -26 0 -29 3 -29 33 0 19 3 37 7 40 11 11 58 8 71 -5z"></path></g></g><g id="l2cznSywHCUkp5poOZES5Dc" fill="rgb(254,249,210)" style="transform: none;"><g><path id="pip224PaR" d="M1875 8473 c-84 -50 -188 -160 -224 -237 -76 -158 -78 -291 -10 -491 79 -231 396 -812 806 -1480 585 -953 1299 -1900 1852 -2456 196 -197 307 -266 495 -306 96 -20 283 -12 386 17 94 27 192 79 248 133 48 47 53 67 16 67 -18 0 -38 12 -60 37 l-34 37 -33 -31 c-75 -73 -205 -113 -372 -113 -243 0 -353 67 -667 406 -747 808 -1589 2020 -2242 3228 -209 386 -282 565 -273 671 2 33 12 78 22 100 10 24 18 73 20 125 4 123 46 224 120 288 18 17 31 33 28 36 -9 9 -13 7 -78 -31z"></path><path id="p1FI5Q6B9w" d="M4083 7980 c-87 -43 -184 -134 -221 -205 -128 -253 -107 -698 84 -1735 84 -454 112 -555 216 -795 48 -109 192 -385 202 -385 1 0 -18 78 -42 173 -135 536 -275 1276 -353 1862 -18 132 -23 220 -24 390 l0 220 29 62 c16 35 35 68 42 74 8 7 14 31 14 61 0 27 12 85 26 129 21 62 37 91 74 130 26 27 43 52 39 54 -4 3 -43 -13 -86 -35z"></path><path id="p17BVbHbP" d="M6804 7680 c-133 -20 -240 -77 -342 -184 -90 -96 -126 -160 -177 -310 -90 -270 -113 -668 -74 -1296 5 -91 15 -190 20 -220 11 -53 51 -194 68 -235 30 -73 62 -142 104 -225 l48 -95 -6 50 c-3 28 -17 138 -30 245 -74 582 -85 1175 -29 1529 27 175 77 293 164 386 30 32 55 72 70 113 12 34 37 81 54 103 42 53 121 107 173 121 24 6 43 14 43 19 0 10 -12 10 -86 -1z"></path><path id="pNZunqZpg" d="M8001 7254 c-123 -33 -296 -158 -375 -272 -40 -59 -101 -205 -122 -297 -25 -106 -26 -351 -2 -480 44 -237 138 -483 267 -698 25 -43 54 -92 64 -109 42 -72 208 -278 306 -381 244 -255 511 -440 795 -552 205 -80 438 -106 596 -66 89 23 202 71 232 98 17 15 16 18 -17 54 -20 23 -35 50 -35 64 0 14 -2 25 -5 25 -3 0 -26 -13 -52 -29 -78 -47 -139 -63 -259 -69 -132 -5 -211 7 -350 53 -613 204 -1199 867 -1371 1550 -33 133 -43 364 -19 475 21 101 75 207 140 276 30 31 57 69 61 83 27 108 133 238 216 262 21 7 39 16 39 21 0 12 -47 9 -109 -8z"></path><path id="p167MdMIL4" d="M9890 6969 c-124 -21 -260 -117 -309 -220 -49 -100 -45 -270 8 -379 11 -24 21 -50 21 -57 0 -7 5 -13 10 -13 6 0 10 28 10 63 1 135 41 252 116 333 24 27 44 56 44 64 0 52 126 181 190 195 16 4 30 11 30 16 0 11 -45 10 -120 -2z"></path><path id="p1GGd3Ofn3" d="M11575 6716 c-119 -38 -199 -113 -235 -221 -32 -95 -25 -185 23 -292 19 -43 55 -125 81 -182 49 -109 86 -215 130 -371 15 -52 41 -127 58 -167 27 -64 46 -96 131 -220 41 -60 51 -53 44 34 -19 229 -126 592 -260 878 -72 153 -83 217 -47 274 12 18 29 35 39 38 10 3 22 22 29 49 19 72 129 174 187 174 8 0 15 5 15 10 0 14 -147 11 -195 -4z"></path><path id="po3IdVvez" d="M13789 6482 c-226 -92 -447 -312 -522 -519 -78 -215 -46 -415 86 -540 94 -89 211 -114 310 -67 33 16 49 34 29 34 -19 0 -72 61 -72 83 0 23 -3 25 -40 20 -53 -7 -93 11 -136 60 -61 72 -77 167 -48 280 19 75 39 115 98 195 25 34 46 69 46 78 0 29 53 129 106 200 58 77 127 140 188 171 61 31 28 35 -45 5z"></path><path id="p13c1TI4LI" d="M8413 6464 c-28 -7 -29 -17 -3 -59 28 -45 79 -77 200 -125 370 -145 788 -569 950 -962 31 -75 74 -128 105 -128 21 0 49 104 41 153 -10 61 -62 177 -123 274 -227 363 -633 714 -953 825 -55 19 -176 31 -217 22z"></path><path id="p1CQriy0Ti" d="M4810 6313 c0 -18 113 -306 159 -406 88 -188 187 -348 330 -532 311 -400 697 -836 963 -1088 272 -257 384 -319 581 -319 181 1 369 70 462 170 32 34 31 38 -5 45 -30 7 -60 30 -78 63 -10 18 -13 17 -44 -13 -71 -69 -251 -121 -372 -108 -131 14 -182 45 -390 234 -231 209 -577 591 -901 996 -228 285 -359 464 -647 886 -32 46 -58 79 -58 72z"></path><path id="pVxSLMNAo" d="M10250 6147 c0 -21 43 -100 89 -161 44 -59 221 -212 288 -249 68 -36 157 -58 207 -51 50 8 139 50 163 77 17 19 17 20 -1 31 -33 19 -76 69 -76 89 0 17 -3 16 -31 -7 -41 -35 -70 -41 -126 -27 -56 15 -77 29 -218 150 -107 91 -194 143 -262 157 -26 5 -33 3 -33 -9z"></path><path id="prYiwJXu2" d="M14043 5861 c-74 -20 -118 -40 -165 -73 -38 -26 -39 -83 -3 -122 25 -27 68 -35 81 -15 12 21 111 58 170 64 123 14 237 -27 324 -115 74 -76 101 -144 107 -270 6 -114 -10 -212 -66 -390 -93 -298 -102 -513 -31 -730 72 -219 204 -391 406 -525 338 -226 783 -222 1091 10 89 66 125 115 85 115 -17 0 -72 44 -72 58 0 4 -4 13 -9 21 -7 11 -20 4 -62 -37 -64 -63 -182 -126 -286 -153 -101 -26 -277 -28 -381 -4 -345 80 -603 354 -653 696 -22 154 -3 293 76 555 86 282 83 485 -7 657 -106 200 -383 318 -605 258z"></path><path id="p6n5wsNAa" d="M11295 5646 c-118 -37 -226 -131 -266 -231 -21 -52 -24 -76 -24 -175 1 -107 3 -119 32 -180 84 -177 315 -422 588 -623 182 -135 390 -215 525 -204 71 6 161 36 200 67 23 19 24 21 7 31 -31 18 -58 53 -64 82 -3 15 -6 27 -7 27 0 0 -23 -11 -50 -25 -151 -77 -376 16 -687 284 -281 242 -414 437 -393 577 6 45 53 120 79 131 8 3 15 18 15 34 0 50 39 136 76 168 19 17 39 31 44 31 6 0 10 5 10 10 0 13 -36 12 -85 -4z"></path><path id="pkqGS3SOz" d="M9920 4906 c0 -51 32 -192 48 -210 35 -38 140 -79 249 -96 91 -15 184 1 254 43 54 33 63 49 32 53 -20 3 -73 62 -73 81 0 16 -5 16 -39 -1 -47 -25 -120 -29 -194 -12 -90 21 -140 48 -207 112 -31 30 -60 54 -63 54 -4 0 -7 -11 -7 -24z"></path><path id="pcd8wpFcq" d="M12400 4839 c0 -34 48 -202 80 -279 40 -98 78 -149 205 -276 288 -290 596 -444 886 -444 99 0 212 22 274 52 47 23 135 81 135 88 0 3 -13 11 -30 17 -19 7 -35 24 -47 50 -10 21 -19 40 -20 42 -1 2 -20 -8 -42 -22 -136 -90 -365 -91 -587 -1 -240 96 -518 349 -764 693 -39 55 -76 101 -81 101 -5 0 -9 -10 -9 -21z"></path></g></g></svg>