<svg class="img-fluid" id="outputsvg" xmlns="http://www.w3.org/2000/svg" style="transform: matrix(0.769231, 0, 0, 0.769231, 0, 0); transform-origin: 50% 50%; cursor: move; transition: transform 200ms ease-in-out 0s;" width="500" height="281" viewBox="0 0 5000 2810"><g id="l7UKeTmCaO5XPNzjbW7ZADp" fill="rgb(88,35,16)" style="transform: none;"><g style="transform: none;"><path id="pQeKGjuoW" d="M80 2034 l0 -140 35 -13 c65 -23 65 -26 65 -450 0 -273 -3 -387 -12 -406 -12 -27 -54 -55 -83 -55 -13 0 -15 -21 -15 -145 l0 -145 260 0 c224 0 260 2 260 15 0 18 -5 19 63 -5 155 -55 406 -45 497 20 l27 19 75 -29 c215 -84 498 -53 606 64 55 59 75 117 70 204 l-3 71 30 -33 c55 -61 107 -80 228 -84 122 -5 173 8 242 61 33 25 36 26 17 6 -21 -24 -22 -34 -22 -172 l0 -147 255 0 c253 0 255 0 255 21 0 16 4 19 18 14 116 -47 126 -49 272 -49 149 -1 209 10 282 52 24 14 30 14 76 -6 87 -37 162 -52 268 -52 165 0 293 41 366 117 65 66 65 70 73 584 8 508 9 514 65 526 l30 6 0 92 c0 51 -3 113 -6 139 l-7 46 -258 0 -259 0 0 -534 0 -535 -33 -35 c-51 -54 -105 -59 -160 -15 l-27 20 0 385 0 385 25 24 c13 14 31 25 40 25 13 0 15 20 15 140 l0 140 -258 0 -259 0 -6 -537 c-8 -602 -4 -573 -80 -602 -42 -15 -73 -10 -110 20 l-27 20 0 388 0 388 23 20 c12 11 30 23 40 26 15 6 17 22 17 142 l0 135 -315 0 -315 0 0 -109 c0 -60 3 -123 6 -140 l6 -31 174 0 174 0 -2 -262 -3 -263 -147 -3 -148 -3 0 -27 c0 -15 9 -51 20 -80 24 -62 25 -110 6 -157 -19 -44 -28 -45 -15 -3 26 94 -3 210 -70 272 l-31 30 37 38 c20 21 40 38 44 38 3 0 10 -15 15 -32 11 -39 39 -47 177 -47 l87 -1 0 100 0 100 -29 0 c-21 0 -36 8 -50 28 -25 36 -13 52 41 52 l38 0 0 100 0 100 -107 0 c-60 -1 -128 -5 -153 -10 -39 -7 -54 -5 -110 18 -60 25 -76 27 -205 27 -126 0 -144 -2 -182 -23 -24 -12 -43 -20 -43 -17 0 2 18 14 40 25 l40 20 0 130 0 130 -265 0 -265 0 0 -535 c0 -597 3 -570 -70 -599 -45 -18 -90 -9 -127 26 l-23 21 0 377 c0 363 1 378 20 403 11 14 30 27 43 29 22 3 22 6 22 138 l0 135 -262 3 -263 2 0 -535 0 -535 -29 -32 c-27 -30 -35 -33 -86 -33 -50 0 -60 3 -81 28 l-24 28 0 379 0 378 31 26 c17 14 37 26 44 26 12 0 13 23 8 133 -3 72 -7 133 -7 134 -1 1 -140 6 -309 9 l-307 7 0 -139z m1860 -187 c0 -2 -17 -19 -37 -38 l-38 -34 34 38 c33 34 41 42 41 34z m-87 -114 c-17 -41 -23 -178 -10 -228 13 -50 -11 -7 -28 50 -14 46 -14 56 1 105 16 55 41 110 49 110 2 0 -3 -17 -12 -37z m390 -61 c14 -6 7 -18 -47 -71 -56 -55 -67 -62 -80 -51 -60 49 48 153 127 122z m-319 -357 c-23 -46 -25 -59 -22 -148 3 -91 3 -96 -11 -70 -23 43 -20 139 7 190 28 54 28 90 0 122 -12 14 -6 10 15 -9 l37 -35 -26 -50z m309 -112 c27 -31 25 -55 -9 -75 -30 -18 -31 -18 -53 6 l-22 23 26 32 c31 36 36 37 58 14z"></path><path id="pGCiv2rTs" d="M4550 1671 c-14 -5 -64 -9 -112 -10 l-88 -1 0 -145 0 -145 78 0 78 0 17 35 c19 40 69 75 108 75 30 0 68 -35 53 -50 -5 -5 -60 -27 -123 -49 -161 -56 -211 -111 -211 -228 0 -78 15 -127 52 -168 l30 -35 -56 0 -56 0 0 -36 c0 -41 55 -179 82 -206 20 -20 99 -25 155 -9 20 6 35 6 38 0 8 -13 119 -11 148 2 33 15 47 49 47 115 0 47 -4 59 -26 79 l-27 25 87 0 86 0 0 130 0 130 -82 0 -83 1 49 19 c97 38 145 110 146 219 0 80 -15 130 -51 175 -47 56 -104 77 -217 82 -53 2 -108 -1 -122 -5z m190 -500 c0 -5 -16 -23 -36 -41 -27 -23 -44 -30 -67 -28 -51 5 -38 29 28 54 68 26 75 27 75 15z m-165 -281 c-8 -9 -15 -24 -15 -33 0 -33 -17 -24 -42 22 l-27 47 49 -10 c45 -9 48 -11 35 -26z m140 -36 c25 -26 16 -85 -16 -103 -17 -9 -32 -11 -45 -6 -16 8 -14 10 14 13 35 4 52 26 34 44 -8 8 -8 17 -1 30 7 13 6 18 -5 18 -7 0 -17 -8 -21 -17 -7 -17 -8 -16 -15 2 -5 11 -9 23 -9 28 -2 14 48 7 64 -9z m-86 -51 c0 -34 -1 -36 -11 -16 -6 12 -8 29 -5 37 11 27 17 18 16 -21z"></path></g></g><g id="l4CHVfYiMzbJmcpEwain02h" fill="rgb(252,251,251)" style="transform: none;"><g style="transform: none;"><path id="pbjJOJBQl" d="M20 2020 l0 -190 30 0 c17 0 39 -9 51 -21 22 -22 22 -23 15 -383 -7 -348 -8 -362 -28 -379 -11 -9 -31 -17 -44 -17 l-24 0 0 -205 0 -204 303 -3 c243 -2 304 0 313 10 8 11 23 10 82 -8 62 -19 90 -21 200 -18 116 3 134 7 200 35 l73 31 82 -30 c73 -28 97 -32 218 -36 151 -5 205 5 309 58 81 41 166 143 186 223 7 31 6 31 84 1 49 -19 176 -25 248 -11 l42 9 0 -136 0 -136 309 0 c261 0 310 2 314 15 5 12 15 11 66 -6 52 -18 80 -20 208 -17 138 3 152 5 210 32 l63 29 96 -32 c95 -32 99 -32 258 -29 158 3 162 4 229 35 45 21 89 53 129 93 33 34 64 58 68 53 4 -4 17 -34 30 -65 l23 -57 61 -6 c34 -4 115 -5 182 -3 114 3 123 4 157 31 47 36 67 75 67 132 l0 45 65 0 65 0 0 190 c0 162 -2 190 -15 190 -19 0 -19 1 10 56 21 40 25 60 25 139 0 83 -2 95 -29 136 -62 96 -142 145 -253 155 -35 3 -81 2 -104 -4 -22 -5 -86 -7 -142 -4 l-102 5 0 33 c0 39 21 63 63 71 l30 6 -7 90 c-3 50 -6 134 -6 189 l0 98 -1035 0 -1035 0 0 -136 c0 -125 -1 -136 -17 -130 -34 13 -157 25 -205 19 l-48 -6 0 127 0 126 -1035 0 -1035 0 0 -190z m646 107 c1 -1 4 -48 6 -105 2 -73 0 -102 -9 -102 -6 0 -25 -12 -42 -26 l-31 -26 0 -408 c0 -393 1 -408 20 -433 45 -56 186 -54 235 5 l25 30 0 534 0 534 233 -2 232 -3 0 -105 c0 -101 -1 -105 -22 -108 -13 -2 -32 -15 -43 -29 -19 -25 -20 -39 -20 -433 l0 -408 30 -26 c59 -49 175 -44 226 11 l24 26 0 538 0 539 235 0 235 0 0 -99 0 -99 -54 -30 c-107 -61 -169 -169 -170 -297 -1 -80 23 -142 78 -209 l34 -42 -22 -39 c-17 -32 -21 -57 -21 -130 0 -79 4 -97 28 -142 33 -64 34 -112 3 -178 -46 -98 -139 -155 -281 -175 -126 -17 -299 16 -389 75 -24 16 -27 16 -70 -14 -58 -40 -150 -64 -251 -64 -94 -1 -166 15 -254 54 -35 16 -65 29 -67 29 -2 0 -4 -13 -4 -30 l0 -30 -230 0 -230 0 0 115 c0 97 2 115 15 115 29 0 71 28 83 55 9 19 12 139 12 436 0 457 0 457 -65 480 l-35 13 0 110 0 109 277 -7 c153 -4 278 -8 279 -9z m2354 -102 c0 -100 -1 -106 -22 -114 -13 -5 -31 -18 -41 -28 -16 -18 -17 -51 -15 -439 l3 -418 34 -23 c61 -41 180 -25 215 29 13 20 17 100 22 561 l7 537 229 0 228 0 0 -109 c0 -108 0 -109 -25 -115 -55 -14 -55 -16 -53 -467 l3 -413 34 -23 c25 -17 48 -23 88 -23 63 0 103 18 132 59 21 29 21 38 21 560 l0 531 229 0 228 0 7 -46 c3 -26 6 -75 6 -109 0 -61 -1 -63 -30 -68 -56 -12 -57 -18 -65 -526 -8 -514 -8 -518 -73 -584 -47 -49 -94 -73 -189 -98 -140 -35 -271 -21 -405 44 l-66 32 -29 -22 c-75 -60 -272 -90 -393 -59 -36 9 -93 30 -127 46 l-62 29 -7 -35 -6 -34 -224 0 -224 0 0 115 0 115 36 47 c21 27 44 64 52 83 21 50 19 145 -6 207 l-20 52 147 3 146 3 3 293 2 292 -174 0 -173 0 -7 31 c-3 17 -6 67 -6 110 l0 79 285 0 285 0 0 -105z m-735 -166 c22 -6 70 -24 108 -41 65 -30 68 -30 87 -13 15 14 43 19 130 23 l110 5 0 -72 0 -71 -35 0 c-36 0 -85 -24 -85 -42 0 -5 14 -29 30 -54 25 -35 37 -44 60 -44 l30 0 0 -70 0 -70 -57 1 c-103 1 -135 10 -147 44 -6 17 -17 41 -25 54 -13 23 -13 23 -92 -55 -77 -77 -78 -78 -56 -92 68 -46 127 -134 127 -192 0 -88 -64 -170 -158 -204 -80 -28 -192 -19 -262 20 -69 39 -109 94 -116 161 -9 71 1 114 41 173 l34 50 -60 57 c-74 71 -96 130 -80 217 6 31 17 68 25 83 28 54 104 112 176 134 38 11 170 10 215 -2z m2502 -240 c103 -50 150 -174 104 -274 -29 -64 -76 -97 -197 -139 -60 -20 -115 -45 -121 -54 -21 -26 -15 -60 12 -78 41 -27 110 -11 158 37 35 35 45 39 88 39 l49 0 0 -100 0 -100 -60 0 c-46 0 -60 3 -60 14 0 13 -5 13 -32 2 -101 -42 -223 -23 -289 43 -58 58 -74 142 -40 209 33 64 71 91 192 133 62 22 119 45 126 51 22 18 15 63 -13 89 -21 19 -35 24 -75 22 -61 -1 -108 -28 -134 -76 -19 -35 -23 -37 -67 -37 l-48 0 0 115 0 115 54 0 c30 0 56 -4 58 -9 2 -6 28 -1 58 10 68 24 173 19 237 -12z m-335 -716 c17 -21 98 -156 98 -165 0 -10 -78 -20 -101 -13 -14 5 -32 31 -54 79 -54 117 -54 116 -2 116 29 0 49 -6 59 -17z m282 -38 c41 -38 30 -111 -21 -134 -65 -30 -125 6 -125 74 0 78 87 114 146 60z"></path><path id="p10hqSqH4x" d="M2122 1690 c-67 -41 -78 -131 -22 -185 l29 -28 96 91 c52 51 96 95 97 99 1 5 -14 16 -33 25 -47 25 -125 23 -167 -2z"></path><path id="pKZNjvj9g" d="M2156 1230 c-83 -93 -3 -194 103 -129 32 19 33 22 28 67 -4 36 -12 53 -36 74 -17 15 -37 28 -45 28 -8 0 -30 -18 -50 -40z"></path><path id="pUUAb0eSE" d="M4628 853 c-2 -5 -1 -28 3 -53 l6 -45 1 53 c2 48 -2 63 -10 45z"></path></g></g></svg>